<svg width="500" height="400" viewBox="0 0 500 400" xmlns="http://www.w3.org/2000/svg">
  <!-- 背景 -->
  <rect width="500" height="400" fill="#e8f4fc"/>

  <!-- 太陽 -->
  <circle cx="80" cy="80" r="40" fill="#ffd700" class="sun-svg">
    <animate attributeName="opacity" values="0.8;1;0.8" dur="4s" repeatCount="indefinite"/>
  </circle>
  <circle cx="80" cy="80" r="50" fill="#ffd700" opacity="0.3" class="sun-glow">
    <animate attributeName="r" values="45;55;45" dur="4s" repeatCount="indefinite"/>
  </circle>

  <!-- 雲 -->
  <g class="cloud-svg">
    <ellipse cx="170" cy="60" rx="40" ry="20" fill="#ffffff"/>
    <ellipse cx="210" cy="50" rx="30" ry="15" fill="#ffffff"/>
    <ellipse cx="240" cy="65" rx="25" ry="12" fill="#ffffff"/>
    <ellipse cx="190" cy="70" rx="35" ry="15" fill="#ffffff"/>
    <animateTransform attributeName="transform" type="translate" from="-600 0" to="500 0" dur="60s" repeatCount="indefinite"/>
  </g>

  <g class="cloud-svg">
    <ellipse cx="380" cy="90" rx="35" ry="18" fill="#ffffff"/>
    <ellipse cx="410" cy="80" rx="25" ry="13" fill="#ffffff"/>
    <ellipse cx="440" cy="95" rx="20" ry="10" fill="#ffffff"/>
    <ellipse cx="400" cy="100" rx="30" ry="13" fill="#ffffff"/>
    <animateTransform attributeName="transform" type="translate" from="-300 0" to="500 0" dur="50s" repeatCount="indefinite"/>
  </g>

  <!-- 地面 -->
  <rect x="0" y="280" width="500" height="120" fill="#8bc34a"/>

  <!-- 家1 -->
  <g class="house-1">
    <!-- 家の本体 -->
    <rect x="70" y="180" width="120" height="100" fill="#f5f5f5" stroke="#ddd" stroke-width="2"/>
    <!-- 屋根 -->
    <polygon points="60,180 130,120 200,180" fill="#ef5350" stroke="#c62828" stroke-width="2"/>
    <!-- ドア -->
    <rect x="110" y="230" width="40" height="50" fill="#795548" stroke="#5d4037" stroke-width="2"/>
    <circle cx="140" cy="255" r="3" fill="#ffc107"/>
    <!-- 窓 -->
    <rect x="80" y="200" width="30" height="30" fill="#bbdefb" stroke="#64b5f6" stroke-width="2"/>
    <line x1="80" y1="215" x2="110" y2="215" stroke="#64b5f6" stroke-width="2"/>
    <line x1="95" y1="200" x2="95" y2="230" stroke="#64b5f6" stroke-width="2"/>
    <rect x="150" y="200" width="30" height="30" fill="#bbdefb" stroke="#64b5f6" stroke-width="2"/>
    <line x1="150" y1="215" x2="180" y2="215" stroke="#64b5f6" stroke-width="2"/>
    <line x1="165" y1="200" x2="165" y2="230" stroke="#64b5f6" stroke-width="2"/>
    <animateTransform attributeName="transform" type="translate" values="0 0; 0 -5; 0 0" dur="3s" repeatCount="indefinite"/>
  </g>

  <!-- 家2 -->
  <g class="house-2">
    <!-- 家の本体 -->
    <rect x="300" y="200" width="150" height="80" fill="#e1bee7" stroke="#ba68c8" stroke-width="2"/>
    <!-- 屋根 -->
    <polygon points="290,200 375,140 460,200" fill="#4caf50" stroke="#388e3c" stroke-width="2"/>
    <!-- ドア -->
    <rect x="350" y="230" width="35" height="50" fill="#795548" stroke="#5d4037" stroke-width="2"/>
    <circle cx="375" cy="255" r="3" fill="#ffc107"/>
    <!-- 窓 -->
    <rect x="310" y="220" width="25" height="25" fill="#bbdefb" stroke="#64b5f6" stroke-width="2"/>
    <line x1="310" y1="232.5" x2="335" y2="232.5" stroke="#64b5f6" stroke-width="2"/>
    <line x1="322.5" y1="220" x2="322.5" y2="245" stroke="#64b5f6" stroke-width="2"/>
    <rect x="400" y="220" width="40" height="25" fill="#bbdefb" stroke="#64b5f6" stroke-width="2"/>
    <line x1="400" y1="232.5" x2="440" y2="232.5" stroke="#64b5f6" stroke-width="2"/>
    <line x1="420" y1="220" x2="420" y2="245" stroke="#64b5f6" stroke-width="2"/>
    <animateTransform attributeName="transform" type="translate" values="0 0; 0 -5; 0 0" dur="4s" repeatCount="indefinite"/>
  </g>

  <!-- 歩く人 -->
  <g class="person">
    <!-- 頭 -->
    <circle cx="240" cy="230" r="10" fill="#ffccbc"/>
    <!-- 体 -->
    <line x1="240" y1="240" x2="240" y2="270" stroke="#455a64" stroke-width="4"/>
    <!-- 腕 -->
    <line x1="240" y1="250" x2="225" y2="260" stroke="#455a64" stroke-width="3" class="arm-left">
      <animate attributeName="x2" values="225;235;225" dur="0.5s" repeatCount="indefinite"/>
    </line>
    <line x1="240" y1="250" x2="255" y2="260" stroke="#455a64" stroke-width="3" class="arm-right">
      <animate attributeName="x2" values="255;245;255" dur="0.5s" repeatCount="indefinite"/>
    </line>
    <!-- 足 -->
    <line x1="240" y1="270" x2="230" y2="290" stroke="#455a64" stroke-width="3" class="leg-left">
      <animate attributeName="x2" values="230;240;230" dur="0.5s" repeatCount="indefinite"/>
    </line>
    <line x1="240" y1="270" x2="250" y2="290" stroke="#455a64" stroke-width="3" class="leg-right">
      <animate attributeName="x2" values="250;240;250" dur="0.5s" repeatCount="indefinite"/>
    </line>
    <!-- カバン -->
    <rect x="255" y="255" width="10" height="15" fill="#795548"/>
    <animateTransform attributeName="transform" type="translate" from="-300 0" to="500 0" dur="15s" repeatCount="indefinite"/>
  </g>

  <!-- 道路 -->
  <rect x="0" y="300" width="500" height="20" fill="#9e9e9e"/>
  <line x1="20" y1="310" x2="50" y2="310" stroke="#ffffff" stroke-width="2" stroke-dasharray="10,10"/>
  <line x1="70" y1="310" x2="100" y2="310" stroke="#ffffff" stroke-width="2" stroke-dasharray="10,10"/>
  <line x1="120" y1="310" x2="150" y2="310" stroke="#ffffff" stroke-width="2" stroke-dasharray="10,10"/>
  <line x1="170" y1="310" x2="200" y2="310" stroke="#ffffff" stroke-width="2" stroke-dasharray="10,10"/>
  <line x1="220" y1="310" x2="250" y2="310" stroke="#ffffff" stroke-width="2" stroke-dasharray="10,10"/>
  <line x1="270" y1="310" x2="300" y2="310" stroke="#ffffff" stroke-width="2" stroke-dasharray="10,10"/>
  <line x1="320" y1="310" x2="350" y2="310" stroke="#ffffff" stroke-width="2" stroke-dasharray="10,10"/>
  <line x1="370" y1="310" x2="400" y2="310" stroke="#ffffff" stroke-width="2" stroke-dasharray="10,10"/>
  <line x1="420" y1="310" x2="450" y2="310" stroke="#ffffff" stroke-width="2" stroke-dasharray="10,10"/>
  <line x1="470" y1="310" x2="500" y2="310" stroke="#ffffff" stroke-width="2" stroke-dasharray="10,10"/>
</svg>
