<svg width="500" height="400" viewBox="0 0 500 400" xmlns="http://www.w3.org/2000/svg">
  <!-- 背景 -->
  <rect width="500" height="400" fill="#f8f9fa"/>

  <!-- 空と雲 -->
  <rect width="500" height="200" fill="#bbdefb"/>

  <!-- 雲 -->
  <g class="cloud-1">
    <ellipse cx="100" cy="60" rx="30" ry="15" fill="#ffffff"/>
    <ellipse cx="130" cy="50" rx="25" ry="10" fill="#ffffff"/>
    <ellipse cx="150" cy="65" rx="20" ry="12" fill="#ffffff"/>
    <ellipse cx="110" cy="70" rx="25" ry="10" fill="#ffffff"/>
    <animateTransform attributeName="transform" type="translate" from="-120 0" to="500 0" dur="35s" repeatCount="indefinite"/>
  </g>

  <g class="cloud-2">
    <ellipse cx="350" cy="40" rx="25" ry="12" fill="#ffffff"/>
    <ellipse cx="375" cy="30" rx="20" ry="10" fill="#ffffff"/>
    <ellipse cx="390" cy="45" rx="15" ry="8" fill="#ffffff"/>
    <ellipse cx="360" cy="50" rx="22" ry="10" fill="#ffffff"/>
    <animateTransform attributeName="transform" type="translate" from="-350 0" to="500 0" dur="45s" repeatCount="indefinite"/>
  </g>

  <!-- 東京のスカイライン -->
  <g class="skyline">
    <!-- 東京タワー -->
    <g>
      <polygon points="250,180 260,80 270,180" fill="#ef5350" stroke="#c62828" stroke-width="1"/>
      <line x1="255" y1="160" x2="265" y2="160" stroke="#c62828" stroke-width="1"/>
      <line x1="253" y1="140" x2="267" y2="140" stroke="#c62828" stroke-width="1"/>
      <line x1="257" y1="120" x2="263" y2="120" stroke="#c62828" stroke-width="1"/>
      <line x1="259" y1="100" x2="261" y2="100" stroke="#c62828" stroke-width="1"/>
    </g>

    <!-- ビル群 -->
    <rect x="80" y="130" width="40" height="70" fill="#90caf9" stroke="#64b5f6" stroke-width="1"/>
    <rect x="130" y="110" width="30" height="90" fill="#ce93d8" stroke="#ba68c8" stroke-width="1"/>
    <rect x="170" y="150" width="50" height="50" fill="#a5d6a7" stroke="#81c784" stroke-width="1"/>
    <rect x="230" y="100" width="35" height="100" fill="#ffcc80" stroke="#ffa726" stroke-width="1"/>
    <rect x="290" y="120" width="45" height="80" fill="#90caf9" stroke="#64b5f6" stroke-width="1"/>
    <rect x="340" y="140" width="30" height="60" fill="#ce93d8" stroke="#ba68c8" stroke-width="1"/>
    <rect x="380" y="90" width="25" height="110" fill="#a5d6a7" stroke="#81c784" stroke-width="1"/>
    <rect x="420" y="130" width="40" height="70" fill="#ffcc80" stroke="#ffa726" stroke-width="1"/>

    <!-- 窓 -->
    <g class="windows">
      <rect x="90" y="140" width="5" height="8" fill="#ffffff">
        <animate attributeName="fill" values="#ffffff;#ffeb3b;#ffffff" dur="3s" begin="0.5s" repeatCount="indefinite"/>
      </rect>
      <rect x="105" y="140" width="5" height="8" fill="#ffffff">
        <animate attributeName="fill" values="#ffffff;#ffeb3b;#ffffff" dur="3s" begin="1.5s" repeatCount="indefinite"/>
      </rect>
      <rect x="90" y="160" width="5" height="8" fill="#ffffff">
        <animate attributeName="fill" values="#ffffff;#ffeb3b;#ffffff" dur="3s" begin="2.5s" repeatCount="indefinite"/>
      </rect>
      <rect x="105" y="160" width="5" height="8" fill="#ffffff">
        <animate attributeName="fill" values="#ffffff;#ffeb3b;#ffffff" dur="3s" begin="3.5s" repeatCount="indefinite"/>
      </rect>

      <rect x="140" y="120" width="5" height="8" fill="#ffffff">
        <animate attributeName="fill" values="#ffffff;#ffeb3b;#ffffff" dur="3s" begin="0.8s" repeatCount="indefinite"/>
      </rect>
      <rect x="140" y="140" width="5" height="8" fill="#ffffff">
        <animate attributeName="fill" values="#ffffff;#ffeb3b;#ffffff" dur="3s" begin="1.8s" repeatCount="indefinite"/>
      </rect>

      <rect x="240" y="110" width="5" height="8" fill="#ffffff">
        <animate attributeName="fill" values="#ffffff;#ffeb3b;#ffffff" dur="3s" begin="0.3s" repeatCount="indefinite"/>
      </rect>
      <rect x="240" y="130" width="5" height="8" fill="#ffffff">
        <animate attributeName="fill" values="#ffffff;#ffeb3b;#ffffff" dur="3s" begin="2.3s" repeatCount="indefinite"/>
      </rect>
      <rect x="255" y="150" width="5" height="8" fill="#ffffff">
        <animate attributeName="fill" values="#ffffff;#ffeb3b;#ffffff" dur="3s" begin="1.3s" repeatCount="indefinite"/>
      </rect>

      <rect x="300" y="130" width="5" height="8" fill="#ffffff">
        <animate attributeName="fill" values="#ffffff;#ffeb3b;#ffffff" dur="3s" begin="0.7s" repeatCount="indefinite"/>
      </rect>
      <rect x="320" y="150" width="5" height="8" fill="#ffffff">
        <animate attributeName="fill" values="#ffffff;#ffeb3b;#ffffff" dur="3s" begin="2.7s" repeatCount="indefinite"/>
      </rect>

      <rect x="385" y="100" width="5" height="8" fill="#ffffff">
        <animate attributeName="fill" values="#ffffff;#ffeb3b;#ffffff" dur="3s" begin="1.1s" repeatCount="indefinite"/>
      </rect>
      <rect x="385" y="120" width="5" height="8" fill="#ffffff">
        <animate attributeName="fill" values="#ffffff;#ffeb3b;#ffffff" dur="3s" begin="2.1s" repeatCount="indefinite"/>
      </rect>
      <rect x="385" y="140" width="5" height="8" fill="#ffffff">
        <animate attributeName="fill" values="#ffffff;#ffeb3b;#ffffff" dur="3s" begin="3.1s" repeatCount="indefinite"/>
      </rect>
    </g>
  </g>

  <!-- 地面 -->
  <rect y="200" width="500" height="200" fill="#e0e0e0"/>

  <!-- 電車 -->
  <g class="train">
    <rect x="-100" y="210" width="80" height="25" rx="5" fill="#f48fb1" stroke="#ec407a" stroke-width="1"/>
    <rect x="-100" y="220" width="80" height="15" fill="#ec407a"/>
    <circle cx="-85" cy="235" r="5" fill="#424242" stroke="#212121" stroke-width="1"/>
    <circle cx="-65" cy="235" r="5" fill="#424242" stroke="#212121" stroke-width="1"/>
    <circle cx="-45" cy="235" r="5" fill="#424242" stroke="#212121" stroke-width="1"/>
    <rect x="-95" y="215" width="10" height="5" fill="#eeeeee"/>
    <rect x="-80" y="215" width="10" height="5" fill="#eeeeee"/>
    <rect x="-65" y="215" width="10" height="5" fill="#eeeeee"/>
    <rect x="-50" y="215" width="10" height="5" fill="#eeeeee"/>
    <rect x="-35" y="215" width="10" height="5" fill="#eeeeee"/>
    <animateTransform attributeName="transform" type="translate" from="0 0" to="600 0" dur="5s" repeatCount="indefinite"/>
  </g>

  <!-- 人物（通勤客） -->
  <g class="person-1">
    <circle cx="120" cy="280" r="10" fill="#ffccbc"/>
    <rect x="115" y="290" width="10" height="30" rx="2" fill="#455a64"/>
    <rect x="110" y="320" width="20" height="10" rx="2" fill="#263238"/>
    <line x1="115" y1="300" x2="105" y2="310" stroke="#546e7a" stroke-width="2"/>
    <line x1="125" y1="300" x2="135" y2="310" stroke="#546e7a" stroke-width="2"/>
    <!-- カバン -->
    <rect x="100" y="305" width="5" height="10" fill="#795548"/>
    <animateTransform attributeName="transform" type="translate" from="-150 0" to="550 0" dur="15s" repeatCount="indefinite"/>
  </g>

  <g class="person-2">
    <circle cx="250" cy="280" r="9" fill="#ffecb3"/>
    <rect x="245" y="289" width="10" height="28" rx="2" fill="#c5cae9"/>
    <rect x="240" y="317" width="20" height="10" rx="2" fill="#3f51b5"/>
    <line x1="245" y1="299" x2="235" y2="309" stroke="#9fa8da" stroke-width="2"/>
    <line x1="255" y1="299" x2="265" y2="309" stroke="#9fa8da" stroke-width="2"/>
    <!-- カバン -->
    <rect x="265" y="300" width="7" height="12" fill="#5d4037"/>
    <animateTransform attributeName="transform" type="translate" from="-280 0" to="550 0" dur="20s" begin="5s" repeatCount="indefinite"/>
  </g>

  <!-- コンビニ -->
  <g class="convenience-store">
    <rect x="340" y="250" width="80" height="60" fill="#ffffff" stroke="#bdbdbd" stroke-width="2"/>
    <rect x="340" y="250" width="80" height="15" fill="#66bb6a"/>
    <text x="380" y="262" font-family="Arial" font-size="10" fill="#ffffff" text-anchor="middle">コンビニ</text>
    <rect x="365" y="280" width="30" height="30" fill="#e0e0e0" stroke="#bdbdbd" stroke-width="1"/>
    <line x1="380" y1="280" x2="380" y2="310" stroke="#bdbdbd" stroke-width="1"/>
  </g>

  <!-- 歩道と道路 -->
  <rect y="330" width="500" height="20" fill="#90a4ae"/>
  <rect y="350" width="500" height="50" fill="#37474f"/>
  <line x1="50" y1="375" x2="100" y2="375" stroke="#ffffff" stroke-width="3" stroke-dasharray="30,20"/>
  <line x1="150" y1="375" x2="200" y2="375" stroke="#ffffff" stroke-width="3" stroke-dasharray="30,20"/>
  <line x1="250" y1="375" x2="300" y2="375" stroke="#ffffff" stroke-width="3" stroke-dasharray="30,20"/>
  <line x1="350" y1="375" x2="400" y2="375" stroke="#ffffff" stroke-width="3" stroke-dasharray="30,20"/>
  <line x1="450" y1="375" x2="500" y2="375" stroke="#ffffff" stroke-width="3" stroke-dasharray="30,20"/>
</svg>
