<svg width="1200" height="600" viewBox="0 0 1200 600" xmlns="http://www.w3.org/2000/svg">
  <!-- 空と背景 -->
  <defs>
    <linearGradient id="skyGradient" x1="0%" y1="0%" x2="0%" y2="100%">
      <stop offset="0%" stop-color="#64b3f4"/>
      <stop offset="100%" stop-color="#c2e9fb"/>
    </linearGradient>
  </defs>
  <rect width="1200" height="600" fill="url(#skyGradient)"/>

  <!-- 太陽 -->
  <circle cx="200" cy="100" r="60" fill="#ffd700"/>
  <circle cx="200" cy="100" r="70" fill="#ffd700" opacity="0.3"/>
  <circle cx="200" cy="100" r="80" fill="#ffd700" opacity="0.2"/>

  <!-- 雲 -->
  <g class="cloud" fill="#ffffff">
    <ellipse cx="300" cy="150" rx="50" ry="30"/>
    <ellipse cx="350" cy="140" rx="40" ry="25"/>
    <ellipse cx="380" cy="160" rx="35" ry="20"/>
    <ellipse cx="330" cy="170" rx="45" ry="20"/>
  </g>
  <g class="cloud" fill="#ffffff">
    <ellipse cx="700" cy="100" rx="60" ry="35"/>
    <ellipse cx="760" cy="90" rx="50" ry="30"/>
    <ellipse cx="800" cy="120" rx="45" ry="25"/>
    <ellipse cx="730" cy="130" rx="55" ry="25"/>
  </g>
  <g class="cloud" fill="#ffffff">
    <ellipse cx="1000" cy="180" rx="45" ry="25"/>
    <ellipse cx="1050" cy="170" rx="35" ry="20"/>
    <ellipse cx="1080" cy="190" rx="30" ry="18"/>
    <ellipse cx="1030" cy="200" rx="40" ry="18"/>
  </g>

  <!-- 東京スカイツリー -->
  <polygon points="850,450 870,200 890,450" fill="#a0a0a0"/>
  <rect x="860" y="180" width="20" height="30" fill="#a0a0a0"/>
  <rect x="865" y="150" width="10" height="30" fill="#a0a0a0"/>

  <!-- 東京タワー -->
  <polygon points="650,450 680,150 710,450" fill="#e74c3c"/>
  <rect x="660" y="250" width="40" height="10" fill="#ffffff"/>
  <rect x="660" y="350" width="40" height="10" fill="#ffffff"/>

  <!-- 高層ビル群 -->
  <rect x="100" y="350" width="80" height="100" fill="#2c3e50"/>
  <rect x="120" y="280" width="40" height="70" fill="#2c3e50"/>

  <rect x="200" y="320" width="60" height="130" fill="#34495e"/>
  <rect x="220" y="280" width="20" height="40" fill="#34495e"/>

  <rect x="280" y="380" width="70" height="70" fill="#2c3e50"/>
  <rect x="300" y="340" width="30" height="40" fill="#2c3e50"/>

  <rect x="370" y="300" width="50" height="150" fill="#34495e"/>

  <rect x="440" y="350" width="80" height="100" fill="#2c3e50"/>

  <rect x="540" y="330" width="60" height="120" fill="#34495e"/>

  <rect x="740" y="380" width="90" height="70" fill="#2c3e50"/>

  <rect x="920" y="400" width="70" height="50" fill="#34495e"/>

  <rect x="1010" y="320" width="60" height="130" fill="#2c3e50"/>
  <rect x="1030" y="280" width="20" height="40" fill="#2c3e50"/>

  <rect x="1090" y="370" width="80" height="80" fill="#34495e"/>

  <!-- 地面/線路エリア -->
  <rect x="0" y="450" width="1200" height="150" fill="#3c3c3c"/>

  <!-- 線路 -->
  <rect x="0" y="480" width="1200" height="5" fill="#555555"/>
  <rect x="0" y="520" width="1200" height="5" fill="#555555"/>

  <!-- 線路の枕木 -->
  <g fill="#8b4513">
    <rect x="50" y="480" width="10" height="45"/>
    <rect x="150" y="480" width="10" height="45"/>
    <rect x="250" y="480" width="10" height="45"/>
    <rect x="350" y="480" width="10" height="45"/>
    <rect x="450" y="480" width="10" height="45"/>
    <rect x="550" y="480" width="10" height="45"/>
    <rect x="650" y="480" width="10" height="45"/>
    <rect x="750" y="480" width="10" height="45"/>
    <rect x="850" y="480" width="10" height="45"/>
    <rect x="950" y="480" width="10" height="45"/>
    <rect x="1050" y="480" width="10" height="45"/>
    <rect x="1150" y="480" width="10" height="45"/>
  </g>
</svg>
